<svg width="265" height="89" viewBox="0 0 265 89" fill="none" xmlns="http://www.w3.org/2000/svg">
<path d="M54.7393 0C84.9708 0 109.478 25.3641 109.479 56.6523C109.479 65.5527 107.495 73.9736 103.961 81.4678H88.8994C94.443 74.5943 97.7393 65.9996 97.7393 56.6729C97.7391 34.1308 78.4966 15.8574 54.7598 15.8574C31.0229 15.8574 11.7805 34.1308 11.7803 56.6729C11.7803 65.9996 15.0765 74.5943 20.6201 81.4678H5.51758C1.9837 73.9736 0 65.5527 0 56.6523C0.00012948 25.3641 24.5077 4.26793e-06 54.7393 0Z" fill="white"/>
<ellipse cx="30.7821" cy="54.0371" rx="9.45153" ry="10.3791" fill="white"/>
<ellipse cx="74.9159" cy="54.0371" rx="9.45153" ry="10.3791" fill="white"/>
<path d="M125 37.1818H131.364V43.5455H125V37.1818ZM125 43.5455H131.364V49.9091H125V43.5455ZM125 49.9091H131.364V56.2727H125V49.9091ZM125 56.2727H131.364V62.6364H125V56.2727ZM125 62.6364H131.364V69H125V62.6364ZM131.364 37.1818H137.727V43.5455H131.364V37.1818ZM137.727 37.1818H144.091V43.5455H137.727V37.1818ZM137.727 43.5455H144.091V49.9091H137.727V43.5455ZM137.727 49.9091H144.091V56.2727H137.727V49.9091ZM131.364 49.9091H137.727V56.2727H131.364V49.9091ZM150.43 43.5455H156.793V49.9091H150.43V43.5455ZM150.43 49.9091H156.793V56.2727H150.43V49.9091ZM150.43 56.2727H156.793V62.6364H150.43V56.2727ZM150.43 62.6364H156.793V69H150.43V62.6364ZM156.793 43.5455H163.157V49.9091H156.793V43.5455ZM169.502 49.9091H175.866V56.2727H169.502V49.9091ZM169.502 56.2727H175.866V62.6364H169.502V56.2727ZM175.866 62.6364H182.229V69H175.866V62.6364ZM182.229 56.2727H188.593V62.6364H182.229V56.2727ZM182.229 49.9091H188.593V56.2727H182.229V49.9091ZM175.866 43.5455H182.229V49.9091H175.866V43.5455ZM194.932 49.9091H201.295V56.2727H194.932V49.9091ZM194.932 56.2727H201.295V62.6364H194.932V56.2727ZM201.295 62.6364H207.659V69H201.295V62.6364ZM207.659 56.2727H214.023V62.6364H207.659V56.2727ZM207.659 49.9091H214.023V56.2727H207.659V49.9091ZM201.295 43.5455H207.659V49.9091H201.295V43.5455ZM220.361 43.5455H226.725V49.9091H220.361V43.5455ZM220.361 49.9091H226.725V56.2727H220.361V49.9091ZM220.361 56.2727H226.725V62.6364H220.361V56.2727ZM220.361 62.6364H226.725V69H220.361V62.6364ZM226.725 37.1818H233.089V43.5455H226.725V37.1818ZM226.725 49.9091H233.089V56.2727H226.725V49.9091ZM252.161 43.5455H258.525V49.9091H252.161V43.5455ZM252.161 49.9091H258.525V56.2727H252.161V49.9091ZM252.161 56.2727H258.525V62.6364H252.161V56.2727ZM252.161 62.6364H258.525V69H252.161V62.6364ZM245.797 43.5455H252.161V49.9091H245.797V43.5455ZM245.797 62.6364H252.161V69H245.797V62.6364ZM239.434 49.9091H245.797V56.2727H239.434V49.9091ZM239.434 56.2727H245.797V62.6364H239.434V56.2727Z" fill="white"/>
</svg>
